# xmcd CD database file
#
# Track frame offsets:
#	150
#	25799
#	54879
#	81501
#	109900
#	131112
#	162901
#	191757
#	219507
#	245828
#	273352
#
# Disc length: 4003 seconds
#
# Revision: 0
# Processed by: cddbd v1.5.1PL0 Copyright (c) Steve Scherf et al.
# Submitted via: CDex 1.51
#
DISCID=9f0fa10b
DTITLE=Matthias Frey - Voyage Oriental
DYEAR=2004
DGENRE=Jazz
TTITLE0=Voyage Oriental
TTITLE1=Jaipur Express
TTITLE2=Constantinople Palace Dance
TTITLE3=Floating On Syr Darya
TTITLE4=Riders Of Tashkent
TTITLE5=Feathers And Flames (Of Hamadan)
TTITLE6=Samarkant 1001
TTITLE7=The Prince Of Turfan
TTITLE8=Taklan Makan
TTITLE9=Market Of Kashkar
TTITLE10=Moon Over Issyk Kul
EXTD=YEAR: 2004
EXTT0=
EXTT1=
EXTT2=
EXTT3=
EXTT4=
EXTT5=
EXTT6=
EXTT7=
EXTT8=
EXTT9=
EXTT10=
PLAYORDER=
